<svg width="118" height="46" viewBox="0 0 118 46" fill="none" xmlns="http://www.w3.org/2000/svg">
<path d="M13.4788 26.7858L14.0495 26.6595C14.7741 26.4991 15.4441 26.6928 16.0595 27.2407L16.1136 27.4853L14.7822 36.1512C14.3327 37.7266 14.0109 39.8787 13.8168 42.6076L13.6263 42.9063L13.3818 42.9604L13.0016 42.788L12.9381 42.8876L12.5305 42.9778L12.0687 42.8235L11.2715 43.0854L10.4569 42.4961L10.3306 41.9254C10.2772 41.6839 10.3411 41.0711 10.5223 40.0871L7.29504 35.509L6.20978 33.6968L6.12825 33.7148L4.3811 41.2755C4.17309 42.1387 4.09984 43.0956 4.16135 44.1462L4.26092 44.2096L4.27896 44.2912C4.28462 44.746 4.22404 44.9875 4.09723 45.0155L3.85266 45.0697L2.92916 44.761L2.76611 44.7971L2.45807 44.9508L2.19545 44.9234L2.0685 45.1225L1.96893 45.059L1.88741 45.0771L1.82393 45.1766L0.873686 44.3608L0.801506 44.0347C0.584969 43.0564 1.20119 39.7876 2.65016 34.2282L3.68642 29.6374C3.93019 29.3364 4.81501 28.9695 6.34087 28.5368C6.70924 28.4552 7.14983 28.6428 7.66264 29.0994L7.68069 29.1809C8.02153 30.7208 9.23265 32.844 11.314 35.5506C11.7862 34.0778 12.1361 31.6661 12.3636 28.3154C12.3944 27.5674 12.6423 27.142 13.1073 27.039C13.0859 26.9424 13.2097 26.858 13.4788 26.7858Z" fill="#00FEF7"/>
<path d="M26.8058 24.0952L26.8964 24.0752C27.4701 23.9482 28.1721 24.3724 29.0025 25.3479L29.1131 25.4184L29.2033 25.826C29.2608 26.0857 28.8755 26.4053 28.0473 26.785L28.0654 26.8665C29.7662 28.2257 30.7763 29.627 31.0958 31.0702L31.188 31.4869C31.9793 35.0618 30.948 37.7004 28.0942 39.4026C27.1049 39.913 26.2661 40.2444 25.5777 40.3967L24.6175 40.6093C21.9121 41.2081 19.6586 40.2563 17.8567 37.7539C17.6796 37.7551 17.4546 37.2823 17.1817 36.3355L17.0514 35.7467C16.4579 33.0655 17.8637 30.2015 21.2688 27.1547C23.4686 25.4452 25.3143 24.4254 26.8058 24.0952ZM20.4425 35.7848L20.4605 35.8663C20.6731 36.8265 21.4053 37.244 22.6572 37.1189L23.3547 36.9645C25.2327 36.5488 26.7363 35.0853 27.8654 32.5739C27.9873 31.9515 27.9937 31.1646 27.8845 30.2132C27.659 29.4523 27.4702 29 27.3181 28.8563L27.3455 28.5937C27.004 27.7951 26.797 27.4038 26.7246 27.4199C25.0664 28.0276 23.337 29.5728 21.5364 32.0555C20.5786 33.509 20.2139 34.7521 20.4425 35.7848Z" fill="#00FEF7"/>
<path d="M54.2683 16.6454L54.3679 16.7089L54.386 16.7904L54.6125 16.6548C54.8479 16.6597 54.9837 16.7436 55.0198 16.9067L55.1013 16.8886L55.1287 16.626C55.9257 16.6206 56.3362 16.6723 56.3603 16.781L56.3349 17.0527L56.3984 16.9531L56.4799 16.9351L56.7425 16.9624L56.7605 17.044C56.8488 17.4425 56.0874 19.8123 54.4764 24.1534L52.0035 31.9982L51.6601 33.5375C51.2975 33.9598 50.9501 34.2078 50.618 34.2813C49.1877 34.2875 48.4392 34.1396 48.3724 33.8376C47.4658 33.3478 46.7953 32.1216 46.3609 30.1591C45.6944 31.3264 45.2201 32.5463 44.938 33.8187C44.7754 34.9442 44.3166 35.5905 43.5618 35.7576C43.2115 35.8351 42.8614 35.7986 42.5113 35.6481L42.4479 35.7476L42.3663 35.7657C42.2637 35.7884 42.0706 35.6886 41.787 35.4663C41.3884 35.5545 40.7421 34.323 39.848 31.7717C39.5749 31.053 39.1643 29.4557 38.6163 26.9798L37.8189 22.6049C37.7187 22.152 38.1447 21.7441 39.0969 21.3813C39.8409 21.337 40.5109 21.5308 41.1069 21.9626L41.3873 22.4137L41.5156 22.9934L41.8682 26.1745L42.1208 27.3158L42.3126 27.796L42.3213 28.2216L42.4209 28.2851L42.4296 28.7108L42.5018 29.0369L42.6555 29.3449L42.6461 29.689L42.7383 30.1057L45.1833 25.6117C45.3101 25.5837 45.301 24.8984 45.1558 23.5559L45.6089 23.2846L45.7358 23.0855L46.3246 23.0407L46.5782 22.9845L47.1308 22.7767L47.2304 22.8402L47.2484 22.9217L47.1849 23.0213L47.6106 23.0126L47.6921 22.9945L47.9006 22.7773L47.9821 22.7593L48.0817 22.8228L48.1452 22.7232L48.5528 22.633L48.9781 22.9664C49.1412 22.9303 49.2347 22.9666 49.2588 23.0753L48.8422 25.486L48.8977 26.5094L49.2225 27.9768L49.159 28.0764L49.423 28.8826L49.5045 28.8646C50.0519 27.2738 50.7433 25.6036 51.5786 23.8541C51.6031 23.4496 51.724 23.2233 51.9414 23.1752L51.8419 23.1117L51.8238 23.0302C52.5044 21.0108 52.9477 19.9087 53.1539 19.7237C53.1057 19.5063 53.2875 18.7819 53.6991 17.5506C53.6322 17.2486 53.822 16.9469 54.2683 16.6454ZM53.0372 20.7852L53.0553 20.8667L53.1822 20.6676L53.1642 20.5861L53.0372 20.7852ZM52.629 21.6452L52.6831 21.8898L52.7646 21.8717L52.7105 21.6272L52.629 21.6452Z" fill="#00FEF7"/>
<path d="M61.3085 15.6555C62.7638 15.3333 63.7501 15.5679 64.2673 16.3593C64.6243 17.0848 65.1876 18.5564 65.9572 20.7742L66.0568 20.8377C66.1658 21.1873 66.2807 21.3487 66.4015 21.322L68.77 20.4747L68.804 20.6286L68.8856 20.6106L70.0833 20.2695L70.1154 20.4144L69.6151 20.6867L69.6331 20.7682L70.1675 20.6499L70.6839 20.4501L70.718 20.6041C70.2441 20.9244 69.8622 21.1166 69.5724 21.1807L69.6065 21.3347L69.9689 21.169C70.3418 21.1941 70.5397 21.258 70.5624 21.3607L70.9338 21.1929C71.955 20.9986 72.485 20.9889 72.5238 21.1641L72.4583 21.2546L73.0268 21.2903L73.0609 21.4443C72.4513 21.9529 71.0967 22.5727 68.997 23.3035L67.6794 23.8327C68.9097 26.2716 69.6271 27.953 69.8316 28.8769L69.8978 29.1758L69.7234 29.4614L69.6419 29.4795C69.4728 29.5169 69.2803 29.4772 69.0644 29.3603L69.1166 29.5958L68.9626 29.6299L68.9285 29.4759L68.7271 29.682L68.376 29.5126L67.6833 29.989L66.933 29.5185C66.5885 29.164 65.8759 27.7476 64.7952 25.2692L64.7228 25.2853C61.7174 26.8754 60.2695 27.918 60.3791 28.4132C60.2019 28.5854 59.7657 29.5055 59.0707 31.1733C58.8113 31.6614 58.576 31.9289 58.3646 31.9757L58.1264 31.6293L58.07 31.7178L57.9975 31.7339C57.6494 31.6209 57.4507 31.4527 57.4012 31.2292L57.3448 31.3177L57.1908 31.3518L57.1567 31.1978C56.9454 31.2446 56.7096 31.1384 56.4496 30.8793C56.2443 30.9247 56.1302 30.8961 56.1075 30.7934L55.9892 30.259C55.8636 29.6914 56.2656 28.6174 57.1954 27.0369C57.5236 26.0585 58.0983 24.677 58.9196 22.8926L60.4997 17.7538L60.6862 16.1067C60.9139 15.8473 61.1213 15.6969 61.3085 15.6555ZM62.3376 23.1812L62.3537 23.2537C63.1678 22.8391 63.5661 22.5925 63.5487 22.514L63.0516 21.3413C62.9261 21.4324 62.6881 22.0457 62.3376 23.1812ZM69.1344 20.318L69.2884 20.2839L69.3224 20.4379L69.1684 20.472L69.1344 20.318ZM69.3342 20.8344L69.3502 20.9068L69.5042 20.8727L69.4882 20.8003L69.3342 20.8344Z" fill="#00FEF7"/>
<path d="M82.712 9.50769L82.9747 9.44954C84.4964 9.11271 85.6989 9.53701 86.5821 10.7225C86.7092 11.9549 86.6429 12.5999 86.3832 12.6574L86.2927 12.6774C85.9364 12.7563 85.2974 12.7172 84.3758 12.5601L82.6257 12.7669C79.5037 13.458 77.1585 15.3263 75.5902 18.372C74.9477 19.8192 74.7862 21.2644 75.1056 22.7076C75.2834 23.5108 75.9732 23.7793 77.1749 23.5133C77.8995 23.353 78.8783 22.8956 80.1113 22.1412L80.0932 22.0597L80.0027 22.0798L77.5588 22.8012C77.5241 22.6442 77.2498 22.4927 76.7361 22.3467L76.7996 22.2471L76.7795 22.1566L76.2723 22.2688L76.2342 22.0967L76.7234 21.9029L76.7053 21.8214L76.0059 21.8812L75.9678 21.7091L76.2215 21.653L76.2034 21.5714L75.7777 21.6657L75.7576 21.5751L75.8736 21.2834C75.469 21.3729 75.254 21.3603 75.2286 21.2456C75.1444 20.8652 78.4849 19.2864 85.25 16.5094C85.9082 16.3637 86.4825 16.6547 86.973 17.3823L87.1217 17.6249C87.2527 18.2167 86.9901 18.9336 86.334 19.7757C86.4583 20.3373 85.2835 21.7977 82.8094 24.157C81.6332 25.1965 80.399 25.8593 79.1067 26.1454L78.3368 26.3158C75.7703 26.8839 73.7609 25.9477 72.3085 23.5073L72.0566 22.7554L71.9423 22.2391C71.4852 20.1738 72.5347 17.3317 75.091 13.7126C77.104 11.5883 79.6443 10.1867 82.712 9.50769Z" fill="#00FEF7"/>
<path d="M98.7315 5.64569C98.777 5.851 98.9024 5.93094 99.1077 5.88549L99.1418 6.03948L98.9062 6.09161L98.9243 6.17313C99.184 6.11566 99.3251 6.13825 99.3479 6.24091L99.3659 6.32243L99.0579 6.3906C99.0927 6.54761 99.2641 6.59203 99.572 6.52386L99.6061 6.67784L99.3706 6.72997L99.3867 6.80244L100.32 6.59593L101.112 6.82904L101.049 6.9286L101.065 7.00107C101.325 6.94359 101.466 6.9692 101.491 7.0779C101.532 7.2651 100.617 7.68295 98.7464 8.33143C98.0942 8.47579 96.9334 9.1128 95.2641 10.2425L94.7825 12.1449L94.8641 12.1269C95.1191 11.9627 95.9049 11.7064 97.2214 11.358L97.4275 11.5595L97.21 11.6931L97.2261 11.7656C97.6427 11.6733 97.8624 11.6786 97.8852 11.7812L97.5318 12.0305L97.5478 12.1029L97.7018 12.0689L97.6814 12.3204C97.7389 12.5801 97.9904 12.743 98.4357 12.8091L98.4518 12.8815L98.3974 12.9791L98.4134 13.0516C98.6731 12.9941 98.8149 13.0197 98.839 13.1284L98.855 13.2009C98.8898 13.3579 97.3479 14.1331 94.2293 15.5265C93.8247 15.6161 93.4778 16.51 93.1886 18.2084L98.58 16.0363L98.6141 16.1903L98.6956 16.1722L99.067 16.0045C99.1909 16.2495 99.3495 16.3506 99.5427 16.3078L99.5949 16.5433C99.468 16.5714 99.3556 16.6786 99.2575 16.865L99.0945 16.9011L99.1105 16.9736L99.5815 16.8693L99.6176 17.0324L99.2281 17.1186L99.3257 17.173L99.3437 17.2545L99.2782 17.345C100.045 17.1753 100.488 17.2135 100.605 17.4598L100.551 17.5574C100.819 17.5362 100.966 17.5859 100.993 17.7067C100.599 18.1042 99.1297 18.8349 96.5843 19.8987C93.5907 21.1124 92.1393 21.9246 92.2302 22.3353C92.2179 22.6231 92.0368 22.907 91.6871 23.1871L91.6056 23.2052L91.0574 22.9179L90.8943 22.954L90.5229 23.1218C90.4935 22.9889 90.2081 22.9159 89.6667 22.9027L89.4473 23.0273L89.3497 22.9729L89.3317 22.8913L89.3611 22.6378L89.2071 22.6719L89.1436 22.7714L89.0711 22.7875L88.9715 22.724L88.9555 22.6515C89.0434 21.0168 89.997 16.2384 91.8162 8.31659C91.7013 7.79726 91.9948 7.40607 92.6967 7.14301L95.7492 6.55287L98.7315 5.64569Z" fill="#00FEF7"/>
<path d="M109.695 1.06871L110.402 0.912322C113.922 0.133053 116.256 0.829662 117.402 3.00215L117.589 3.46418L117.642 3.69969C117.795 4.39415 116.472 5.9001 113.672 8.21755C115.205 11.3939 116.119 13.6464 116.413 14.9749L116.512 15.0384L116.528 15.1109L116.501 15.3735L116.739 16.062L116.675 16.1615L116.521 16.1956C116.474 15.9843 116.397 15.8906 116.288 15.9147C116.323 16.0717 116.289 16.1615 116.186 16.1843L116.023 16.2204L115.933 16.1549L115.851 16.1729C115.819 16.4017 115.764 16.5247 115.686 16.5421L115.269 16.5488L115.151 16.7459C115.056 16.4882 114.894 16.3848 114.665 16.4356C113.392 14.6648 112.158 12.5657 110.962 10.1383L107.674 12.1108C107.512 12.9258 107.342 13.4036 107.164 13.5443L107.171 13.9609L106.935 14.0131L107.06 13.0733L107.042 12.9918L106.96 13.0098L106.754 13.9676L106.953 14.0946C106.754 14.1387 106.48 14.7758 106.132 16.0058C106.061 16.0279 105.98 16.4069 105.889 17.1427C105.781 17.1668 105.634 17.7503 105.45 18.8932L105.369 18.9113C105.315 18.6697 105.006 18.5165 104.44 18.4517L104.322 18.6488C104.298 18.5401 104.205 18.5038 104.042 18.5399L103.824 18.6735C103.647 18.4151 103.455 18.2928 103.249 18.3068L103.195 18.0622C102.913 16.788 103.579 12.9443 105.194 6.53101C103.923 6.02681 103.237 5.54524 103.135 5.0863L103.049 4.6968C103.03 4.40966 103.897 3.72042 105.651 2.62908C105.823 2.14755 107.171 1.62743 109.695 1.06871ZM108.548 7.86007L108.711 7.82398C111.569 5.77224 113.248 4.26994 113.747 3.31708L113.729 3.23556L112.136 3.51196L111.982 3.54604C109.984 3.98847 109.036 4.4452 109.141 4.91622C108.87 6.64208 108.672 7.62337 108.548 7.86007Z" fill="#00FEF7"/>
</svg>
